<svg t="1741687728170" fill="#525A65" class="icon" viewBox="0 0 1024 1024" version="1.1" xmlns="http://www.w3.org/2000/svg" p-id="17142" width="200" height="200"><path d="M827.42857156 59.42857156A109.71428531 109.71428531 0 0 1 937.14285687 169.14285688v675.15428625a109.71428531 109.71428531 0 0 1-155.17714218 99.84l-265.44-120.89142844a27.42857156 27.42857156 0 0 0-23.10857157 0.13714219l-249.87428625 118.28571468A109.71428531 109.71428531 0 0 1 86.85714313 842.51428531V169.14285688A109.71428531 109.71428531 0 0 1 196.57142844 59.42857156h630.85714312z m0 82.28571375H196.57142844A27.42857156 27.42857156 0 0 0 169.14285688 169.14285688v673.37142843a27.42857156 27.42857156 0 0 0 39.15428624 24.82285782l249.87428532-118.35428625a109.71428531 109.71428531 0 0 1 92.43428625-0.68571375l265.44 120.96a27.42857156 27.42857156 0 0 0 38.81142843-24.96V169.14285688a27.42857156 27.42857156 0 0 0-27.42857156-27.42857157zM512 306.28571469a68.57142844 68.57142844 0 1 1 0 137.14285687 68.57142844 68.57142844 0 0 1 0-137.14285687z" p-id="17143"></path></svg>