<svg t="1741687680005" class="icon" viewBox="0 0 1024 1024" version="1.1" xmlns="http://www.w3.org/2000/svg" p-id="16985" width="200" height="200"><path d="M469.37857168 77.42857168a102.85714248 102.85714248 0 0 1 84.85714248 0l283.05 128.18571416c36.77142832 16.71428584 60.42857168 53.35714248 60.42857168 93.72857168v173.25a424.28571416 424.28571416 0 0 1-172.41428584 341.48571416l-152.16428584 112.24285665a102.85714248 102.85714248 0 0 1-122.14285664-1e-8L298.76428584 814.14285752A424.28571416 424.28571416 0 0 1 126.28571416 472.59285752V299.34285752a102.85714248 102.85714248 0 0 1 60.42857168-93.72857168z m53.1 70.3285708a25.71428584 25.71428584 0 0 0-21.21428584 0L218.47142832 275.87857168a25.71428584 25.71428584 0 0 0-15.10714248 23.46428584v173.25a347.14285752 347.14285752 0 0 0 141.10714249 279.38571416l152.22857167 112.24285665a25.71428584 25.71428584 0 0 0 30.53571416 0l152.22857168-112.24285665A347.14285752 347.14285752 0 0 0 820.57142832 472.59285752V299.34285752a25.71428584 25.71428584 0 0 0-15.10714248-23.4zM512 299.85714248a38.57142832 38.57142832 0 0 1 38.05714248 32.33571504L550.57142832 338.42857168v115.71428584h115.71428584a38.57142832 38.57142832 0 0 1 6.23571416 76.6285708L666.28571416 531.28571416H550.57142832v115.71428584a38.57142832 38.57142832 0 0 1-76.6285708 6.23571416L473.42857168 647V531.28571416H357.71428584a38.57142832 38.57142832 0 0 1-6.23571416-76.62857168L357.71428584 454.14285752h115.71428583V338.42857168a38.57142832 38.57142832 0 0 1 38.57142833-38.5714292z" p-id="16986"></path></svg>