<svg t="1741686350278" fill="#525A65" class="icon" viewBox="0 0 1024 1024" version="1.1" xmlns="http://www.w3.org/2000/svg" p-id="16514" width="200" height="200">
<path d="M671.802514 47.425829a117.028571 117.028571 0 0 1 82.753829 34.274742L908.229486 235.373714a117.028571 117.028571 0 0 1 34.274743 82.753829V873.325714a117.028571 117.028571 0 0 1-117.028572 117.028572H210.987886a117.028571 117.028571 0 0 1-117.028572-117.028572V164.4544a117.028571 117.028571 0 0 1 117.028572-117.028571h460.814628z m-51.989943 87.771428H210.987886a29.257143 29.257143 0 0 0-29.257143 29.257143V873.325714a29.257143 29.257143 0 0 0 29.257143 29.257143H825.490286a29.257143 29.257143 0 0 0 29.257143-29.257143V362.174171h-117.877029a117.028571 117.028571 0 0 1-117.028571-117.028571V135.197257zM497.371429 482.742857a43.885714 43.885714 0 0 1 43.885714 43.885714v204.8a43.885714 43.885714 0 0 1-87.771429 0V526.628571a43.885714 43.885714 0 0 1 43.885715-43.885714z m0-190.171428a58.514286 58.514286 0 1 1 0 117.028571 58.514286 58.514286 0 0 1 0-117.028571z m210.212571-133.719772v86.308572a29.257143 29.257143 0 0 0 29.257143 29.257142l86.279314-0.014628-115.536457-115.565714z" p-id="16515"></path>
</svg>