<svg t="1742190847266" class="icon" viewBox="0 0 1024 1024" version="1.1" xmlns="http://www.w3.org/2000/svg" p-id="17299" width="200" height="200"><path d="M280.19350415 588.14474126l24.27906502-59.39988821 29.37307365-46.6098506 31.29546296-9.74787356 38.6096037-5.3788069 30.33750414 15.12668046 26.82283349 10.71877689h12.03920555V467.01479479l12.58938482-1.92238933 30.20157839 7.30119625 21.87122346 16.64128908 20.00061667 24.3955735 22.60911104 42.82332614-10.05209031 70.254592-97.21982407 17.32739528H416.26889443l-55.03729436-3.65059755 3.90950571-37.67106447-50.68117333-6.36912753z" fill="#328AFF" p-id="17300"></path><path d="M472.78843563 463.39008739c18.62840546-3.06158251 40.03359629 0.58254222 60.32548408 16.15583802 12.88065593 9.89027215 24.23375645 24.04604813 33.67094045 42.97219754l2.35605902 4.83510044c2.30427762 4.56324779 6.30440164 11.49550023 11.64437164 20.26599766l6.52447289 10.57637717c3.37227207 5.41116985 6.93225245 11.02299364 10.53754139 16.64776191l7.18468779 11.15244772 2.85445689 4.37553949a2.58907705 2.58907705 0 1 1-4.32375807 2.84151125l-6.45327304-9.94205354a1939.73614591 1939.73614591 0 0 1-10.74466816-16.84194304l-5.08753464-8.12322816-4.95808172-8.05850112c-5.78658645-9.51485667-10.01972622-16.89372445-12.31105933-21.59289799l-0.4336697-0.90617629c-9.37245696-19.71581838-20.72555746-34.20170126-33.61268622-44.0919734-18.36949845-14.09752178-37.63222755-17.75459215-54.53242481-15.43089721l-1.80588088 0.27185378-0.74435927 0.12945409 0.53723249 1.20392022 1.00974024 2.4337317c0.82850476 2.11009764 1.52755542 4.17488555 2.05184342 6.1425846 2.12304327 8.02613705 1.20392021 13.88392334-4.88040904 15.27555072-6.73159851 1.53402823-15.57976861-0.22654407-26.1626186-4.54382933a153.01442333 153.01442333 0 0 1-15.59271424-7.5406848A228.65429504 228.65429504 0 0 1 415.55689927 473.03439815l-2.93860238-1.94180777-2.1489334-1.45635556-1.88355356 0.06472703c-35.47682133 1.33337429-60.64911815 5.50178816-69.25779742 12.79003876l-0.6278508 0.56312376c-30.43459527 29.44427349-66.33214066 115.22037874-72.00869149 173.94063474-2.58907705 26.03316451 8.84816896 39.94945079 29.94914304 45.20527644 9.20416711 2.29133312 19.04265785 2.62144 27.9684995 1.8058809l3.04216518-0.33010688 0.5890139-0.07767268 144.61934365-1.81235371 139.14991844 1.81235371a2.58907705 2.58907705 0 0 1 0.45308813 5.13284437l-0.51781518 0.04530859-139.08519139-1.8123537-144.18567282 1.77999075-1.07446728 0.14887139a77.21920739 77.21920739 0 0 1-2.51787605 0.27185266c-9.45012962 0.86734051-19.83879851 0.51781518-29.69670883-1.94180664-23.44408861-5.83836785-36.70663282-21.96831459-33.84570312-50.73942755 5.78658645-59.85297749 42.16311126-146.77474873 73.56861099-177.15756261 9.51485667-9.14591289 36.63543296-13.59265223 76.05412295-14.89366244a2.58907705 2.58907705 0 0 1 1.59228246 0.47897828l1.48224569 1.02915868 2.65380409 1.77998962a224.03926585 224.03926585 0 0 0 15.45031338 9.3336212c5.22346155 2.87387534 10.29157888 5.33996999 15.06195342 7.28825058 9.67667371 3.94834148 17.61866638 5.53415111 23.04278073 4.291394 2.02595213-0.45956096 2.4855131-3.40463616 1.03563151-8.89995036a51.43847822 51.43847822 0 0 0-1.87060794-5.57298688c-0.40130674-1.03563038-0.82850476-2.03889778-1.26217557-3.00332942l-0.64726926-1.42399147a50.80415459 50.80415459 0 0 0-0.85439488-1.73468217 2.58907705 2.58907705 0 0 1 1.56639119-3.6829605l1.048576-0.27185381c0.84145038-0.19418112 1.95475229-0.42719801 3.3334363-0.65374207z" fill="#000000" p-id="17301"></path><path d="M378.21594283 547.85870962a2.58907705 2.58907705 0 0 1 1.78646243 3.20398222l-7.52126748 24.51208306c-1.14566599 3.77357882-2.20071482 7.27530496-2.96449252 9.88379932l-1.86413511 6.49210994-2.08420636 7.53421199c-5.42411549 20.13654243-7.87079282 33.9427931-6.36265586 37.78110008 0.68610502 1.71526371 35.30205867 4.40790243 81.48471125 5.89662094l2.52435003 0.0841455c16.18172815 0.49839673 33.36672369 0.88675898 50.68117333 1.1845029l22.11071317 0.32363406 13.534398 0.12945408a2.58907705 2.58907705 0 0 1-0.03883577 5.17815296l-20.09770667-0.22007125-6.91283512-0.09709113c-20.25952371-0.30421676-40.51904739-0.73788643-59.43225231-1.32690147l-14.60239133-0.48545111c-48.27333177-1.72173539-72.15109006-3.96775993-74.06700657-8.75755178-2.18129749-5.56651406 0.46603378-20.20126948 6.73159851-43.08870599l1.54697272-5.54709673 2.85445689-9.83201794c3.34638194-11.21070194 9.32067555-30.43459527 9.49543823-31.05597326a2.58907705 2.58907705 0 0 1 2.67969422-1.87708075l0.51781632 0.09061717z" fill="#000000" p-id="17302"></path><path d="M278.14166073 588.20299549a2.58907705 2.58907705 0 0 1 3.17809209-0.76377771l0.44661533 0.27185265c0.97090333 0.74435924 18.46658845 3.98717838 39.21156436 7.18468779l9.48249259 1.43693711c4.13604978 0.60843349 8.11028252 1.16508445 11.73498994 1.66348231l5.14579001 0.68610503c3.15220082 0.40777955 5.79953095 0.72494194 7.83195591 0.93206755l2.3819503 0.22007126 1.048576 0.06472703c-0.12945409 0 0.22007126-0.01941845-0.36247097 0.34305254a2.58907705 2.58907705 0 1 1 2.75089409 4.3884851c-2.89329266 1.81235371-78.5072731-9.85143637-82.37147025-12.80298325a2.58907705 2.58907705 0 0 1-0.48545108-3.62470741zM742.03945074 518.80927118l-258.79114525 2.00653483a2.58907705 2.58907705 0 0 0-2.4725686 1.9094437l-45.84607289 167.29318058a2.58907705 2.58907705 0 0 0 2.45962298 3.27518208l270.04068293 4.01306852a2.58907705 2.58907705 0 0 0 2.57613142-2.07773355l34.59006238-173.32572956a2.58907705 2.58907705 0 0 0-2.56318578-3.0939466z m-3.145728 5.20404422l-33.54795919 168.08284844-264.53889592-3.93539584 44.44149873-162.17975467 253.64535638-1.96769793zM460.19905082 330.32449934a2.58907705 2.58907705 0 0 1 3.6247074 0.49839673l7.89021127 10.49870564 1.83824384 2.50493155c19.02323939 25.98785593 29.50252771 45.80723712 32.39582038 66.20268658 2.34311454 16.24645518-4.41437526 27.49599289-17.44390372 31.9686235-11.29484629 3.87066994-26.14967296 2.02595213-38.18240568-4.51146638a2.58907705 2.58907705 0 1 1 2.47256746-4.55030217c10.81586688 5.87720363 24.18197504 7.53421312 34.02693861 4.16194106 10.66052267-3.65707036 15.98754816-12.53760342 14.00043177-26.33738126-2.64733127-18.64135111-12.17513245-37.15324813-29.48958208-61.1863518l-5.67654969-7.71544745c-1.55344555-2.07773355-3.37227207-4.49204793-5.95487631-7.90962972a2.58907705 2.58907705 0 0 1 0.49839672-3.62470628z" fill="#000000" p-id="17303"></path><path d="M438.92331406 394.96079474c1.52755542-7.89668295 3.27518209-15.43089607 5.94840349-20.86795719 7.37886777-15.03606215 26.51861676-15.56682295 34.75835335-30.53168526 8.22679098-14.96486229 8.22031815-31.15953607-2.25249735-36.18234368-21.65115221-10.40161451-42.57089079 14.97133511-42.57089081 14.9713351s-15.32733326-9.76729088-28.88762141 3.61823346c-14.96486229 14.77715399-3.17809095 28.60929593-3.17809095 28.60929593s-32.36345629 13.09425438-14.96486343 50.88182727c5.61182379 12.18160526 25.06226118 30.30514118 37.21797632 27.77431837 4.60855637-0.95795883 7.34650482-7.18468779 9.437184-15.48915029l-3.37874489-4.13604978-3.32049067-9.20416712 1.50813696-5.96782193 4.84157327-3.55997924 4.84157212 0.08414436z" fill="#000000" p-id="17304"></path><path d="M416.63783822 429.686784a2.58907705 2.58907705 0 0 1 2.21366045 2.41431438l-0.02589128 0.51781519-5.0228076 34.75835221a2.58907705 2.58907705 0 0 1-5.14579001-0.21359844l0.02589127-0.524288 5.02280761-34.75835335a2.58907705 2.58907705 0 0 1 2.40784156-2.21366044l0.51781519 0.01941845zM466.72352369 438.03008342a2.58907705 2.58907705 0 0 1 2.69911268 1.84471665l0.09708999 0.51781519 2.20071481 26.18203705a2.58907705 2.58907705 0 0 1-5.06811733 0.94501318l-0.09708999-0.51781632-2.20071481-26.17556308a2.58907705 2.58907705 0 0 1 2.36900465-2.79620267zM428.29515549 395.50450118c4.42732089-4.71211918 10.18801607-4.31081245 15.83867562-1.24922992a2.58907705 2.58907705 0 1 1-2.45962298 4.55677496c-3.83183305-2.07126073-7.2041051-2.31075043-9.59900102 0.23948971-5.10048029 5.43058831 3.07452813 19.88410823 9.57958372 19.89057991 2.12304327 0 3.55998037-0.82850476 4.60855523-2.30427762 0.53723364-0.74435924 0.87381333-1.50813696 1.03563151-2.0518434l0.1035628-0.36247098a2.58907705 2.58907705 0 0 1 5.06811734 1.05504882 11.90975261 11.90975261 0 0 1-1.9935892 4.36906667 10.39514283 10.39514283 0 0 1-8.82227768 4.47263061c-10.72524971-0.01294562-21.81297038-19.61225443-13.35963534-28.60929593zM375.72395577 556.24731762s-6.34323741 77.63345977 20.81617578 87.58198727l-17.73517482-1.29453851-17.57335666-2.35605904-4.43379369-1.9482806 1.34631991-18.99734926 17.57982948-62.97928705z" fill="#000000" p-id="17305"></path><path d="M97.74775296 576.46153273m-25.8907648 0a25.89076594 25.89076594 0 1 0 51.78153074 0 25.89076594 25.89076594 0 1 0-51.78153074 0Z" fill="#000000" p-id="17306"></path><path d="M954.05245667 323.21101142l-141.77135957 101.48532792a2.58907705 2.58907705 0 0 0 0.44014364 4.46615666l158.73628275 71.93101882a2.58907705 2.58907705 0 0 0 3.65059753-2.60849437l-16.97139597-173.42281956a2.58907705 2.58907705 0 0 0-4.08426838-1.85118949z m-0.64079644 6.815744l16.10405546 164.49697791-150.56774598-68.23511267 134.46369052-96.26186524zM848.57995038 702.94439482a3.23634517 3.23634517 0 0 1 0.5825422 6.42091007l-0.58254222 0.0517814H175.42004962a3.23634517 3.23634517 0 0 1-0.5825422-6.42091008l0.58254222-0.05178139h673.15990074z" fill="#000000" p-id="17307"></path></svg>