<svg t="1741687558558" fill="#525A65" class="icon" viewBox="0 0 1024 1024" version="1.1" xmlns="http://www.w3.org/2000/svg" p-id="16671" width="200" height="200"><path d="M775.314286 43.885714a117.028571 117.028571 0 0 1 117.028571 117.028572v364.6464a43.885714 43.885714 0 0 1-87.771428 0V160.914286a29.257143 29.257143 0 0 0-29.257143-29.257143H219.428571a29.257143 29.257143 0 0 0-29.257142 29.257143v702.171428a29.257143 29.257143 0 0 0 29.257142 29.257143h198.568229a43.885714 43.885714 0 1 1 0 87.771429H219.428571a117.028571 117.028571 0 0 1-117.028571-117.028572V160.914286a117.028571 117.028571 0 0 1 117.028571-117.028572h555.885715z m21.065143 624.596115l113.781028 113.781028a43.739429 43.739429 0 0 1 12.829257 29.710629v2.940343a43.885714 43.885714 0 0 1-5.705143 23.288685c-3.437714 7.168-8.762514 13.224229-15.316114 17.583543l-105.603657 105.5744a43.885714 43.885714 0 1 1-62.0544-62.069028L770.486857 863.085714H585.142857a43.885714 43.885714 0 0 1 0-87.771428h193.930972l-44.763429-44.763429a43.885714 43.885714 0 0 1 62.0544-62.069028zM512 497.371429a43.885714 43.885714 0 0 1 0 87.771428H321.828571a43.885714 43.885714 0 0 1 0-87.771428h190.171429z m131.657143-219.428572a43.885714 43.885714 0 0 1 0 87.771429H321.828571a43.885714 43.885714 0 0 1 0-87.771429h321.828572z" p-id="16672"></path></svg>