<svg t="1741687618191" fill="#525A65" class="icon" viewBox="0 0 1024 1024" version="1.1" xmlns="http://www.w3.org/2000/svg" p-id="16828" width="200" height="200"><path d="M841.14285688 539.42857156A109.71428531 109.71428531 0 0 1 950.85714312 649.14285688v191.99999999a109.71428531 109.71428531 0 0 1-109.71428624 109.71428626H182.85714312a109.71428531 109.71428531 0 0 1-109.71428624-109.71428625V649.14285688a109.71428531 109.71428531 0 0 1 109.71428625-109.71428532z m-1e-8 82.28571375H182.85714312a27.42857156 27.42857156 0 0 0-27.42857156 27.42857157v191.99999999c0 15.08571469 12.34285687 27.42857156 27.42857157 27.42857157h658.28571375a27.42857156 27.42857156 0 0 0 27.42857156-27.42857156V649.14285688a27.42857156 27.42857156 0 0 0-27.42857156-27.42857157z m-137.14285687 68.57142938a54.85714313 54.85714313 0 1 1 0 109.71428531 54.85714313 54.85714313 0 0 1 0-109.71428531z m-215.86285688 13.71428531a41.14285687 41.14285687 0 0 1 6.65142844 81.73714313L488.13714312 786.28571469h-191.99999999a41.14285687 41.14285687 0 0 1-6.72000001-81.73714313l6.72-0.54857156h192.00000001zM841.14285688 73.14285688a109.71428531 109.71428531 0 0 1 109.71428624 109.71428624V374.85714312a109.71428531 109.71428531 0 0 1-109.71428625 109.71428532H182.85714312A109.71428531 109.71428531 0 0 1 73.14285688 374.85714312V182.85714312A109.71428531 109.71428531 0 0 1 182.85714312 73.14285688z m-1e-8 82.28571468H182.85714312a27.42857156 27.42857156 0 0 0-27.42857156 27.42857157V374.85714312c0 15.08571469 12.34285687 27.42857156 27.42857157 27.42857157h658.28571375a27.42857156 27.42857156 0 0 0 27.42857156-27.42857156V182.85714312a27.42857156 27.42857156 0 0 0-27.42857156-27.42857156z m-137.14285687 68.57142844a54.85714313 54.85714313 0 1 1 0 109.71428531 54.85714313 54.85714313 0 0 1 0-109.71428531zM488.13714312 237.71428531a41.14285687 41.14285687 0 0 1 6.65142844 81.73714313l-6.65142844 0.54857156h-191.99999999a41.14285687 41.14285687 0 0 1-6.72000001-81.73714313L296.13714312 237.71428531h192.00000001z" p-id="16829"></path></svg>